<svg xmlns="http://www.w3.org/2000/svg" viewBox="0 0 375.765 225.66">
  <defs>
    <style>
      .cls-1 {
        fill: #fff;
      }
    </style>
  </defs>
  <g id="Symbol_1_1" data-name="Symbol 1 – 1" transform="translate(-312 -50)">
    <g id="Group_6" data-name="Group 6" transform="translate(450 50)">
      <g id="Group_3" data-name="Group 3">
        <path id="Path_17" data-name="Path 17" class="cls-1" d="M71.527,107H28.473A28.5,28.5,0,0,1,0,78.527V35.473A28.5,28.5,0,0,1,28.473,7H71.527A28.5,28.5,0,0,1,100,35.473V78.527A28.5,28.5,0,0,1,71.527,107ZM28.473,15.542A20,20,0,0,0,8.542,35.473V78.527A20,20,0,0,0,28.473,98.458H71.527A19.94,19.94,0,0,0,91.458,78.527V35.473A19.94,19.94,0,0,0,71.527,15.542Z" transform="translate(0 -7)"/>
      </g>
      <g id="Group_4" data-name="Group 4" transform="translate(24.331 24.331)">
        <path id="Path_18" data-name="Path 18" class="cls-1" d="M53.826,86.451A25.626,25.626,0,1,1,79.451,60.826,25.629,25.629,0,0,1,53.826,86.451Zm0-42.623a17,17,0,1,0,17,17A17.031,17.031,0,0,0,53.826,43.828Z" transform="translate(-28.2 -35.2)"/>
      </g>
      <g id="Group_5" data-name="Group 5" transform="translate(70.578 16.825)">
        <path id="Path_19" data-name="Path 19" class="cls-1" d="M94.052,32.626A6.126,6.126,0,1,1,87.926,26.5,6.15,6.15,0,0,1,94.052,32.626Z" transform="translate(-81.8 -26.5)"/>
      </g>
    </g>
    <g id="Group_10" data-name="Group 10" transform="translate(311.911 170.093)">
      <path id="Path_29" data-name="Path 29" class="cls-1" d="M148.54,28.133c.665-.886,1.772-2.88,2.658-2.88a26.168,26.168,0,0,1,6.867,1.772c.443.222.665,1.772.665,2.437,0,8.861-.222,17.722-.222,26.582a20.581,20.581,0,0,0,1.108,6.424c1.108,3.766,4.209,4.209,6.646,1.108a11.361,11.361,0,0,0,2.658-8.418,40.568,40.568,0,0,1,1.994-19.937A18.415,18.415,0,0,1,178,25.475,10.145,10.145,0,0,1,192.179,26.8c.443.443.886,1.108,1.329,1.551a.686.686,0,0,1,.443-.222c.443-3.544.886-3.766,4.652-3.1.665.222,1.551.443,2.215.665,1.994.443,2.658,1.551,2.437,3.544-.222,9.082-.222,18.386-.443,27.468v2.437c.222.222.443.222.665.443.222-.443.222-.665.443-1.108a69.439,69.439,0,0,0,9.747-19.937c.443-1.772.665-3.1-.886-4.43-1.994-2.215-1.772-4.873-.665-7.532a5.772,5.772,0,0,1,5.095-3.766c3.544-.443,5.538,1.329,5.316,5.095a10.87,10.87,0,0,1-.222,2.437c2.215-.443,3.987-.665,5.981-1.108,1.551-.222,2.88-.665,4.43-.886,4.873-.443,6.867,1.994,5.76,6.646-.886,4.43-1.994,9.082-2.658,13.513a26.49,26.49,0,0,0,1.551,13.734c.665,1.329,1.994,3.323,3.323,3.323s3.323-1.329,4.43-2.437a6.4,6.4,0,0,0,1.772-5.981,40.99,40.99,0,0,1,1.772-21.93c1.551-4.209,3.766-7.975,7.975-10.19a10.66,10.66,0,0,1,13.513,2.88c.443.443.665.886,1.108,1.329.443-1.108.886-3.1,1.329-3.1a22.608,22.608,0,0,1,6.646.665c1.772.443,1.772,1.994,1.772,3.544,0,9.3-.222,18.608,0,27.69a16.83,16.83,0,0,0,1.329,5.76c1.108,2.658,3.766,3.1,5.76,1.108,2.88-2.88,4.873-6.2,4.873-10.411V27.69c0-2.88.443-3.323,3.323-2.88h.886c4.652.665,4.873.886,4.873,5.538V42.975h.665l1.329-3.323c1.551-3.987,2.88-7.753,4.43-11.741,1.551-3.544,2.658-4.209,5.76-3.544,3.987.886,5.981,2.88,6.2,6.2.222,6.2.665,12.184.886,18.386a1.841,1.841,0,0,0,.665,1.551,3.2,3.2,0,0,0,.443-1.551c1.994-7.089,3.987-14.177,6.2-21.266,1.108-3.544,2.88-4.209,6.646-3.1a27.021,27.021,0,0,1,3.766,1.551,4.751,4.751,0,0,1,2.658,5.095q-.332,11.63,0,23.26a27.218,27.218,0,0,0,1.772,8.2,4.283,4.283,0,0,0,3.1,2.437,4,4,0,0,0,3.1-2.215c1.108-2.215,1.551-4.652,2.437-6.867.222-.886,1.108-1.329,1.772-1.994.443.886,1.108,1.551.886,2.437a41.5,41.5,0,0,1-1.994,9.082,8.112,8.112,0,0,1-7.975,5.538,9.155,9.155,0,0,1-8.639-5.095c-2.437-4.43-3.1-9.3-3.323-14.177-.222-4.652,0-9.3-.222-13.956a5.619,5.619,0,0,0-.443-2.658,8.98,8.98,0,0,0-1.108,1.994,77.783,77.783,0,0,0-5.981,25.475c-.222,1.551.665,3.544-1.772,4.43s-5.316.443-6.424-1.994a23.34,23.34,0,0,1-2.658-8.418c-.665-6.424-1.108-13.07-1.551-19.494a19.753,19.753,0,0,0-.443-2.437c-.886,1.329-1.551,1.994-1.994,2.88-3.766,7.31-5.095,15.285-5.76,23.481-.222,2.437-.222,4.652-.443,7.089A2.387,2.387,0,0,1,303.6,70c-1.994,2.215-4.652,1.108-7.089.886-1.551-.222-3.1-.886-3.1-2.88,0-1.108-.222-1.994-.222-3.766-2.88,4.209-5.76,7.753-11.076,7.089-5.095-.665-7.31-4.43-8.418-9.747-2.88,5.095-6.424,8.639-11.962,9.525-5.981.886-9.747-1.994-12.627-7.089-.665.886-1.108,1.551-1.551,2.215-3.987,6.2-10.854,6.867-15.949,1.551a17.583,17.583,0,0,1-4.873-12.405c.222-5.76,1.108-11.3,1.551-17.057a18.422,18.422,0,0,1,.443-2.88h-7.089a1.943,1.943,0,0,0-1.329,1.551c-3.544,10.411-9.525,19.494-16.392,28.133a6.694,6.694,0,0,0-1.108,3.544c-.443,7.089-.443,14.177-1.108,21.044a18.6,18.6,0,0,1-5.316,11.3,14.822,14.822,0,0,1-17.057,2.658,10.027,10.027,0,0,1-4.652-13.734,53.771,53.771,0,0,1,7.753-10.854A75.2,75.2,0,0,1,192.179,70c2.215-1.772,2.215-3.766,1.329-6.646-3.1,4.209-6.867,7.089-12.184,7.532-5.538.443-8.639-3.323-11.519-7.532-2.658,3.987-5.095,8.2-10.854,7.532-5.316-.665-7.532-4.43-9.082-9.747-3.323,6.2-7.753,10.19-14.62,9.747-7.31-.443-9.747-6.2-11.741-12.627a12.013,12.013,0,0,1-1.329,2.437,54.085,54.085,0,0,1-5.095,7.31c-4.209,4.209-9.968,3.544-13.513-1.329-2.437-3.1-3.323-6.867-3.766-10.633a3.174,3.174,0,0,0-.886-2.215c-.443,1.108-1.108,2.215-1.551,3.323-3.544,6.424-7.975,11.741-15.506,13.291-4.652.886-9.525.886-13.956-1.108-1.551-.665-3.544-2.658-3.323-3.544.443-1.994,1.994-3.766,3.544-5.316.222-.443,1.772,0,2.437.443,1.551.665,2.658,1.994,4.209,2.658,3.323,1.551,5.981,0,7.089-3.544a8.372,8.372,0,0,0-1.772-8.418c-2.437-2.88-5.316-5.538-8.2-8.639a8.369,8.369,0,0,0-1.551,2.437c-3.1,4.873-5.981,9.968-9.082,14.842-2.215,3.544-4.873,6.867-8.418,8.861-4.873,2.88-8.861,1.329-9.968-3.987a62.708,62.708,0,0,1-.886-12.848c0-6.2.443-12.627.665-18.829,0-.665-.222-1.108-.222-2.437A24.568,24.568,0,0,0,40,33.45c-4.873,6.2-7.753,13.291-9.968,20.823-1.329,4.652-2.215,9.3-3.323,13.956C26.261,70,25.6,70.444,24.046,70.222,18.729,70,17.4,68.672,17.4,63.134V25.918c0-1.994.886-2.658,2.658-2.437.665.222,1.329.222,1.994.443,3.544.886,3.766,1.329,3.766,5.095V45.19a3.643,3.643,0,0,0,.443,1.994c.665-1.551,1.108-3.1,1.772-4.43,2.437-4.873,4.652-9.968,7.532-14.62,3.544-5.316,7.753-5.76,13.291-2.437a5.659,5.659,0,0,1,3.1,5.76c.221,8.2,0,15.285,0,22.595a58.375,58.375,0,0,0,.443,6.2c.443,1.994,1.994,2.437,3.323.886a28.831,28.831,0,0,0,3.987-5.095c2.88-4.652,5.538-9.3,8.2-13.956a2.322,2.322,0,0,0-.222-2.88c-2.215-3.323-2.215-6.646-.443-10.19a10.811,10.811,0,0,1,9.3-5.538c3.1-.222,4.873,1.772,4.209,4.652-.443,2.215-1.772,4.43-2.658,6.646a13.463,13.463,0,0,1-2.215,3.1c1.772,1.329,3.323,2.437,4.873,3.766,2.215,1.772,4.209,3.544,6.424,5.316a12.688,12.688,0,0,1,4.652,11.962c4.652-3.766,7.753-8.418,7.753-14.4.222-6.867,0-13.734.222-20.6,0-1.551-.443-2.215-2.215-2.215H90.058c-1.551,0-1.994-.665-2.215-2.215-.222-3.544,1.329-5.095,4.873-4.873a37.547,37.547,0,0,1,5.095.222c1.551,0,2.215-.443,2.215-1.994,0-3.323.222-6.424.443-9.747.222-2.437.886-3.1,3.323-2.88a2.81,2.81,0,0,1,1.329.222c5.538,1.108,5.76,1.329,5.538,6.867v7.975c3.766.222,7.31.443,11.076.665,3.323.222,4.209,1.329,2.658,4.43a3.632,3.632,0,0,1-2.437,1.551c-3.323.222-6.646.443-9.968.443-1.329,0-1.994.443-1.994,1.994-.222,10.19-.443,20.6-.443,30.791a21.63,21.63,0,0,0,1.551,7.31c.886,2.437,2.88,2.88,4.873,1.551a15.285,15.285,0,0,0,3.544-3.987,23.21,23.21,0,0,0,3.323-11.519A33.184,33.184,0,0,1,127.5,30.792c3.544-5.981,9.525-8.418,14.842-5.981C145.217,25.254,146.989,27.026,148.54,28.133Zm46.076,16.614c-.886-3.544-1.108-7.31-2.437-10.633-1.551-3.987-5.538-4.652-8.639-1.772a13.136,13.136,0,0,0-3.766,5.981A35.394,35.394,0,0,0,178,54.937,26.9,26.9,0,0,0,180,62.469c1.994,3.987,5.76,4.43,8.639.886a13.224,13.224,0,0,0,3.1-5.76C193.065,53.83,193.73,49.4,194.616,44.747Zm61.582,6.2h.443a12.52,12.52,0,0,0,0,2.88c.665,2.88.886,6.2,2.215,8.861,1.994,4.43,5.981,4.652,8.861.886a20.845,20.845,0,0,0,2.658-4.873,38.323,38.323,0,0,0,1.994-17.279,17.508,17.508,0,0,0-2.215-7.31c-1.994-3.766-6.424-3.987-9.082-.665a16.583,16.583,0,0,0-2.88,5.981A69.69,69.69,0,0,0,256.2,50.95Zm-123.386-.665h.665a35.781,35.781,0,0,0,0,4.873c.665,2.658,1.108,5.538,2.437,7.975,1.772,3.323,5.095,3.544,7.753.665a19.249,19.249,0,0,0,3.544-5.76A40.449,40.449,0,0,0,148.761,38.1c-.665-4.43-3.1-7.31-6.2-7.532s-5.981,1.994-7.31,6.424C134.141,41.425,133.476,45.855,132.812,50.285ZM195.5,76.425c-.443-.222-.665-.222-1.108-.443-5.538,5.095-10.854,10.411-13.513,17.722a2,2,0,0,0-.222,1.108c-.886,4.652,2.437,7.975,7.089,7.089,3.544-.665,5.316-3.323,5.76-6.424C194.616,89.051,194.837,82.627,195.5,76.425Z" transform="translate(21.036 0.302)"/>
      <path id="Path_30" data-name="Path 30" class="cls-1" d="M18.056,5.619c-.886,1.329-1.994,2.437-2.88,3.544a30.255,30.255,0,0,0-6.2,23.924c.222,2.215,1.772,4.43,2.658,6.646.222.665.222,1.551.443,2.437a8.935,8.935,0,0,1-2.437,0C3.214,39.955-.995,32.645.335,25.556A34.741,34.741,0,0,1,15.619,2.075C19.164-.362,22.93-.8,26.7,1.189a3.688,3.688,0,0,1,2.437,3.766V59.005A33.382,33.382,0,0,1,26.7,72.075a14.759,14.759,0,0,1-7.532,7.975,7.536,7.536,0,0,1-2.215.222,6.023,6.023,0,0,1,0-1.994c2.215-6.2,2.215-12.627,2.437-19.051,0-16.835.222-33.449.222-50.285a10.785,10.785,0,0,0-.222-2.658A7.374,7.374,0,0,1,18.056,5.619Z" transform="translate(0 0)"/>
    </g>
  </g>
</svg>
